<!-- icon666.com - MILLIONS vector ICONS FREE --><svg xmlns="http://www.w3.org/2000/svg" xmlns:xlink="http://www.w3.org/1999/xlink" version="1.1" id="Layer_1" x="0px" y="0px" viewBox="0 0 512 512" style="enable-background:new 0 0 512 512;" xml:space="preserve"><g id="XMLID_1209_"><g id="XMLID_1210_"><g id="XMLID_1211_"><g id="XMLID_1212_"><g id="XMLID_1213_"><path id="XMLID_1214_" style="" d="M430.5,256.92V492.3H32.87V256.92c0-14.21,12.13-25.74,27.07-25.74h343.49 C418.38,231.18,430.5,242.71,430.5,256.92z" fill="#697491"></path><rect id="XMLID_1215_" x="32.87" y="452.31" style="" width="397.63" height="39.99" fill="#515B7C"></rect><path id="XMLID_1216_" style="" d="M430.5,256.92v92.97H263.33c-10.76,0-19.51-8.75-19.51-19.51v-99.2h159.61 C418.38,231.18,430.5,242.71,430.5,256.92z" fill="#515B7C"></path><g id="XMLID_1217_"><rect id="XMLID_1218_" x="58.24" y="256" style="fill: rgb(255, 162, 0);" width="346.89" height="226.22" fill="#57D3D0"></rect><rect id="XMLID_1219_" x="58.24" y="452.31" style="fill: rgb(255, 64, 0);" width="346.89" height="29.91" fill="#00BDC6"></rect><path id="XMLID_1220_" style="fill: rgb(255, 64, 0);" d="M405.13,256v93.89h-141.8c-10.76,0-19.51-8.75-19.51-19.51V256H405.13z" fill="#00BDC6"></path></g><path id="XMLID_1223_" style="" d="M450.297,464.315v22.635c0,9.694-7.856,17.55-17.559,17.55H30.639 c-9.703,0-17.559-7.856-17.559-17.55v-22.635H450.297z" fill="#E7F2EC"></path><g id="XMLID_1224_"><polygon id="XMLID_1225_" style="" points="293.893,464.315 282.527,484.821 180.85,484.821 169.484,464.315 " fill="#AFC3C3"></polygon></g></g><g id="XMLID_1226_"><g id="XMLID_1227_"><path id="XMLID_1230_" style="" d="M498.92,66.95v263.43c0,4.15-3.36,7.51-7.52,7.51H263.33 c-4.15,0-7.51-3.36-7.51-7.51V15.02c0-4.15,3.36-7.52,7.51-7.52h176.14c1.95,0,3.94,0.8,5.31,2.2l51.94,51.94 C498.11,63.03,498.92,64.98,498.92,66.95z" fill="#E7F2EC"></path><path id="XMLID_1231_" style="" d="M498.92,66.95v16.01H441c-9.35,0-16.96-7.61-16.96-16.96V7.5h15.43 c1.95,0,3.94,0.8,5.31,2.2l51.94,51.94C498.11,63.03,498.92,64.98,498.92,66.95z" fill="#CEDBDA"></path><path id="XMLID_1232_" style="fill: rgb(255, 162, 0);" d="M498.92,66.95v4.01H441c-2.74,0-4.96-2.22-4.96-4.96V7.5h3.43 c1.953,0,3.936,0.804,5.31,2.2l51.94,51.94C498.112,63.032,498.92,64.983,498.92,66.95z" fill="#57D3D0"></path></g></g></g></g></g><g id="XMLID_1233_"><path id="XMLID_1234_" d="M407.886,484.407c0-4.143-3.358-7.5-7.5-7.5H400.3c-4.142,0-7.457,3.357-7.457,7.5s3.401,7.5,7.543,7.5 S407.886,488.55,407.886,484.407z" fill="#000000"></path><path id="XMLID_1235_" d="M387.359,484.407c0-4.143-3.358-7.5-7.5-7.5h-0.086c-4.142,0-7.457,3.357-7.457,7.5s3.401,7.5,7.543,7.5 S387.359,488.55,387.359,484.407z" fill="#000000"></path><path id="XMLID_1236_" d="M502.021,56.333L450.116,4.429C447.333,1.614,443.453,0,439.469,0H263.335 c-8.28,0-15.017,6.736-15.017,15.017v58.063h-3.588c-4.142,0-7.5,3.357-7.5,7.5s3.358,7.5,7.5,7.5h3.588v52.832 c0,4.143,3.358,7.5,7.5,7.5s7.5-3.357,7.5-7.5L263.335,15l165.205,0.005V66c0,6.87,5.589,12.46,12.46,12.46h50.42l-0.016,251.934 l-228.085-0.017V175.089c0-4.143-3.358-7.5-7.5-7.5s-7.5,3.357-7.5,7.5v48.594h-98.966v-3.447c0-4.143-3.358-7.5-7.5-7.5 s-7.5,3.357-7.5,7.5v3.447h-75.08c-18.692,0-33.899,15.207-33.899,33.899v199.232H13.08c-4.142,0-7.5,3.357-7.5,7.5v22.635 C5.58,500.763,16.821,512,30.639,512h283.272c4.142,0,7.5-3.357,7.5-7.5s-3.358-7.5-7.5-7.5H30.639 c-5.546,0-10.059-4.509-10.059-10.051v-15.135h144.486l9.224,16.643c1.322,2.385,3.833,3.864,6.56,3.864h101.677 c2.727,0,5.238-1.479,6.56-3.864l9.224-16.643h144.486v15.135c0,5.542-4.513,10.051-10.059,10.051h-84.649 c-4.142,0-7.5,3.357-7.5,7.5s3.358,7.5,7.5,7.5h84.649c13.817,0,25.059-11.237,25.059-25.051v-22.635c0-4.143-3.358-7.5-7.5-7.5 h-12.293V345.394h53.4c8.28,0,15.017-6.736,15.017-15.017V66.951C506.42,63,504.817,59.131,502.021,56.333z M40.373,257.582 c0-10.421,8.478-18.899,18.899-18.899h189.045v9.813H58.239c-4.142,0-7.5,3.357-7.5,7.5v53.915c0,4.143,3.358,7.5,7.5,7.5 s7.5-3.357,7.5-7.5v-46.415h182.579v66.881c0,8.28,6.737,15.017,15.017,15.017h134.303v111.421H65.739V344.089 c0-4.143-3.358-7.5-7.5-7.5s-7.5,3.357-7.5,7.5v112.726H40.373V257.582z M278.109,477.321h-92.841l-3.052-5.507h98.946 L278.109,477.321z M423.003,456.814h-10.365V345.394h10.365V456.814z M443.54,19.066L487.93,63.46H443.54V19.066z" fill="#000000"></path><path id="XMLID_1242_" d="M308.636,53.158c0-4.143-3.358-7.5-7.5-7.5h-0.064c-4.142,0-7.468,3.357-7.468,7.5s3.39,7.5,7.532,7.5 S308.636,57.301,308.636,53.158z" fill="#000000"></path><path id="XMLID_1243_" d="M393.505,45.658h-65.069c-4.142,0-7.5,3.357-7.5,7.5s3.358,7.5,7.5,7.5h65.069 c4.142,0,7.5-3.357,7.5-7.5S397.647,45.658,393.505,45.658z" fill="#000000"></path><path id="XMLID_1244_" d="M450.286,130.97h-70.97c-4.142,0-7.5,3.357-7.5,7.5s3.358,7.5,7.5,7.5h70.97c4.142,0,7.5-3.357,7.5-7.5 S454.428,130.97,450.286,130.97z" fill="#000000"></path><path id="XMLID_1245_" d="M348.437,145.97h7.653c4.142,0,7.5-3.357,7.5-7.5s-3.358-7.5-7.5-7.5h-7.653c-4.142,0-7.5,3.357-7.5,7.5 S344.294,145.97,348.437,145.97z" fill="#000000"></path><path id="XMLID_1246_" d="M450.286,192.047h-9.538c-4.142,0-7.5,3.357-7.5,7.5s3.358,7.5,7.5,7.5h9.538c4.142,0,7.5-3.357,7.5-7.5 S454.428,192.047,450.286,192.047z" fill="#000000"></path><path id="XMLID_1247_" d="M348.437,207.047h67.968c4.142,0,7.5-3.357,7.5-7.5s-3.358-7.5-7.5-7.5h-67.968 c-4.142,0-7.5,3.357-7.5,7.5S344.294,207.047,348.437,207.047z" fill="#000000"></path><path id="XMLID_1248_" d="M348.437,268.124h101.85c4.142,0,7.5-3.357,7.5-7.5s-3.358-7.5-7.5-7.5h-101.85 c-4.142,0-7.5,3.357-7.5,7.5S344.294,268.124,348.437,268.124z" fill="#000000"></path><path id="XMLID_1249_" d="M141.852,191.284c4.142,0,7.5-3.357,7.5-7.5v-12.15c0-4.143-3.358-7.5-7.5-7.5s-7.5,3.357-7.5,7.5v12.15 C134.352,187.927,137.71,191.284,141.852,191.284z" fill="#000000"></path><path id="XMLID_1250_" d="M141.852,142.682c4.142,0,7.5-3.357,7.5-7.5v-12.15c0-4.143-3.358-7.5-7.5-7.5s-7.5,3.357-7.5,7.5v12.15 C134.352,139.324,137.71,142.682,141.852,142.682z" fill="#000000"></path><path id="XMLID_1251_" d="M141.852,94.079c3.673,0,6.729-2.64,7.375-6.126c3.485-0.646,6.125-3.701,6.125-7.374 c0-4.143-3.358-7.5-7.5-7.5h-6c-4.142,0-7.5,3.357-7.5,7.5v6C134.352,90.722,137.71,94.079,141.852,94.079z" fill="#000000"></path><path id="XMLID_1252_" d="M189.371,88.079h13.84c4.142,0,7.5-3.357,7.5-7.5s-3.358-7.5-7.5-7.5h-13.84c-4.142,0-7.5,3.357-7.5,7.5 S185.229,88.079,189.371,88.079z" fill="#000000"></path><path id="XMLID_1253_" d="M337,380.607h27.888c4.142,0,7.5-3.357,7.5-7.5s-3.358-7.5-7.5-7.5H337c-4.142,0-7.5,3.357-7.5,7.5 S332.857,380.607,337,380.607z" fill="#000000"></path><path id="XMLID_1254_" d="M255.818,380.607H313c4.142,0,7.5-3.357,7.5-7.5s-3.358-7.5-7.5-7.5h-57.182c-4.142,0-7.5,3.357-7.5,7.5 S251.676,380.607,255.818,380.607z" fill="#000000"></path><path id="XMLID_1255_" d="M364.887,391.054h-56.443c-4.142,0-7.5,3.357-7.5,7.5s3.358,7.5,7.5,7.5h56.443 c4.142,0,7.5-3.357,7.5-7.5S369.029,391.054,364.887,391.054z" fill="#000000"></path><path id="XMLID_1256_" d="M255.818,406.054h29.069c4.142,0,7.5-3.357,7.5-7.5s-3.358-7.5-7.5-7.5h-29.069 c-4.142,0-7.5,3.357-7.5,7.5S251.676,406.054,255.818,406.054z" fill="#000000"></path><path id="XMLID_1257_" d="M255.818,431.5h109.069c4.142,0,7.5-3.357,7.5-7.5s-3.358-7.5-7.5-7.5H255.818 c-4.142,0-7.5,3.357-7.5,7.5S251.676,431.5,255.818,431.5z" fill="#000000"></path><path id="XMLID_1258_" d="M210.887,365.607h-80c-4.142,0-7.5,3.357-7.5,7.5s3.358,7.5,7.5,7.5h80c4.142,0,7.5-3.357,7.5-7.5 S215.029,365.607,210.887,365.607z" fill="#000000"></path><path id="XMLID_1259_" d="M101.818,380.607h8.535c4.142,0,7.5-3.357,7.5-7.5s-3.358-7.5-7.5-7.5h-8.535 c-4.142,0-7.5,3.357-7.5,7.5S97.676,380.607,101.818,380.607z" fill="#000000"></path><path id="XMLID_1260_" d="M210.887,391.054h-14.443c-4.142,0-7.5,3.357-7.5,7.5s3.358,7.5,7.5,7.5h14.443 c4.142,0,7.5-3.357,7.5-7.5S215.029,391.054,210.887,391.054z" fill="#000000"></path><path id="XMLID_1261_" d="M101.818,406.054h69.069c4.142,0,7.5-3.357,7.5-7.5s-3.358-7.5-7.5-7.5h-69.069 c-4.142,0-7.5,3.357-7.5,7.5S97.676,406.054,101.818,406.054z" fill="#000000"></path><path id="XMLID_1262_" d="M101.818,431.5h109.069c4.142,0,7.5-3.357,7.5-7.5s-3.358-7.5-7.5-7.5H101.818 c-4.142,0-7.5,3.357-7.5,7.5S97.676,431.5,101.818,431.5z" fill="#000000"></path><path id="XMLID_1263_" d="M101.818,302.035h109.069c4.142,0,7.5-3.357,7.5-7.5s-3.358-7.5-7.5-7.5H101.818 c-4.142,0-7.5,3.357-7.5,7.5S97.676,302.035,101.818,302.035z" fill="#000000"></path><path id="XMLID_1264_" d="M210.887,312.481h-54.443c-4.142,0-7.5,3.357-7.5,7.5s3.358,7.5,7.5,7.5h54.443 c4.142,0,7.5-3.357,7.5-7.5S215.029,312.481,210.887,312.481z" fill="#000000"></path><path id="XMLID_1265_" d="M101.818,327.481h29.069c4.142,0,7.5-3.357,7.5-7.5s-3.358-7.5-7.5-7.5h-29.069 c-4.142,0-7.5,3.357-7.5,7.5S97.676,327.481,101.818,327.481z" fill="#000000"></path><path id="XMLID_1266_" d="M101.818,352.927h109.069c4.142,0,7.5-3.357,7.5-7.5s-3.358-7.5-7.5-7.5H101.818 c-4.142,0-7.5,3.357-7.5,7.5S97.676,352.927,101.818,352.927z" fill="#000000"></path><path id="XMLID_1267_" d="M287.829,124.921c-2.929,2.929-2.929,7.678,0,10.606l8.268,8.269c1.406,1.407,3.314,2.197,5.303,2.197 s3.897-0.79,5.303-2.196l17.537-17.537c2.929-2.93,2.929-7.678,0-10.607c-2.929-2.928-7.678-2.928-10.606,0L301.4,127.887 l-2.965-2.965C295.506,121.992,290.757,121.993,287.829,124.921z" fill="#000000"></path><path id="XMLID_1268_" d="M287.829,196.583l8.268,8.268c1.464,1.464,3.384,2.196,5.303,2.196s3.839-0.732,5.303-2.196 l17.537-17.536c2.929-2.93,2.929-7.678,0-10.607c-2.928-2.928-7.677-2.928-10.606,0L301.4,188.94l-2.965-2.965 c-2.929-2.928-7.678-2.929-10.606,0.001C284.899,188.905,284.9,193.654,287.829,196.583z" fill="#000000"></path><path id="XMLID_1269_" d="M287.829,257.637l8.268,8.268c1.464,1.464,3.384,2.196,5.303,2.196s3.839-0.732,5.303-2.196 l17.537-17.536c2.929-2.93,2.929-7.678,0-10.607c-2.928-2.928-7.677-2.928-10.606,0L301.4,249.994l-2.965-2.965 c-2.929-2.928-7.678-2.929-10.606,0.001C284.899,249.959,284.9,254.708,287.829,257.637z" fill="#000000"></path></g></g></svg>