<!-- icon666.com - MILLIONS OF FREE VECTOR ICONS --><svg id="Layer_3" enable-background="new 0 0 64 64" viewBox="0 0 64 64" xmlns="http://www.w3.org/2000/svg"><g><path d="m48 62h-46v-45l16-15h30z" fill="#969696"></path><path d="m7 12.312v35.688c0 4.971 4.029 9 9 9h32v-55h-30z" fill="#c9c9c9"></path><path d="m23 7h20v20h-20z" fill="#e7b541" style="fill: rgb(0, 148, 52);"></path><path d="m26 18c0 3.314 2.686 6 6 6h11v-17h-17z" fill="#f9cb6e" style="fill: rgb(0, 204, 24);"></path><path d="m30 7v11l3-2 3 2v-11" fill="#662a12" style="fill: rgb(230, 255, 41);"></path><g><path d="m6 32h26v2h-26z" fill="#fff"></path></g><g><path d="m6 36h15v2h-15z" fill="#fff"></path></g><g><path d="m6 40h15v2h-15z" fill="#fff"></path></g><g><path d="m6 44h22v2h-22z" fill="#fff"></path></g><g><path d="m6 48h15v2h-15z" fill="#fff"></path></g><g><path d="m6 52h15v2h-15z" fill="#fff"></path></g><circle cx="48" cy="48" fill="#e7b541" r="14" style="fill: rgb(0, 148, 52);"></circle><path d="m48 34c-2.227 0-4.324.533-6.193 1.458-2.94 2.567-4.807 6.333-4.807 10.542 0 7.732 6.268 14 14 14 2.227 0 4.324-.533 6.193-1.458 2.94-2.567 4.807-6.333 4.807-10.542 0-7.732-6.268-14-14-14z" fill="#f9cb6e" style="fill: rgb(0, 204, 24);"></path><path d="m2 17h16v-15z" fill="#777"></path><circle cx="48" cy="48" fill="#ffe1b6" r="10" style="fill: rgb(255, 252, 173);"></circle><path d="m49.03 47h-2.03c-.551 0-1-.448-1-1s.449-1 1-1h4v-2h-2v-2h-2v2c-1.654 0-3 1.346-3 3s1.346 3 3 3h2.03c.535 0 .97.435.97 1.03 0 .535-.435.97-.968.97h-4.032v2h2v2h2v-2h.032c1.636 0 2.968-1.332 2.968-3.03 0-1.638-1.332-2.97-2.97-2.97z" fill="#e7b541" style="fill: rgb(0, 148, 52);"></path></g></svg>