<svg version="1.1" xmlns="http://www.w3.org/2000/svg" xmlns:xlink="http://www.w3.org/1999/xlink" width="32px" height="32px" viewBox="0,0,256,256"><g fill="#3775ab" fill-rule="nonzero" stroke="none" stroke-width="1" stroke-linecap="butt" stroke-linejoin="miter" stroke-miterlimit="10" stroke-dasharray="" stroke-dashoffset="0" font-family="none" font-weight="none" font-size="none" text-anchor="none" style="mix-blend-mode: normal"><g transform="translate(0,-20) scale(8,8)"><path d="M24,16c-4.4,0 -8,3.6 -8,8c0,4.4 3.6,8 8,8c4.4,0 8,-3.6 8,-8c0,-4.4 -3.6,-8 -8,-8zM27,25h-2v2c0,0.6 -0.4,1 -1,1c-0.6,0 -1,-0.4 -1,-1v-2h-2c-0.6,0 -1,-0.4 -1,-1c0,-0.6 0.4,-1 1,-1h2v-2c0,-0.6 0.4,-1 1,-1c0.6,0 1,0.4 1,1v2h2c0.6,0 1,0.4 1,1c0,0.6 -0.4,1 -1,1z"></path><g><path d="M16,11c-2.2,0 -4,2.2 -4,5c0,2.1 1.1,3.9 2.6,4.7c0.9,-2.6 2.8,-4.7 5.3,-5.8c-0.4,-2.2 -2,-3.9 -3.9,-3.9z"></path><path d="M31,5h-30c-0.6,0 -1,0.4 -1,1v20c0,0.6 0.4,1 1,1h13.5c-0.3,-0.9 -0.5,-2 -0.5,-3h-7c-0.6,0 -1,-0.4 -1,-1c0,-1.1 -0.9,-2 -2,-2c-0.6,0 -1,-0.4 -1,-1v-8c0,-0.6 0.4,-1 1,-1c1.1,0 2,-0.9 2,-2c0,-0.6 0.4,-1 1,-1h18c0.6,0 1,0.4 1,1c0,1.1 0.9,2 2,2c0.6,0 1,0.4 1,1v3.4c1.2,0.7 2.2,1.6 3,2.7v-12.1c0,-0.6 -0.4,-1 -1,-1z"></path></g></g></g></svg>