<!-- icon666.com - MILLIONS vector ICONS FREE --><svg id="Layer_1" enable-background="new 0 0 512 512" viewBox="0 0 512 512" xmlns="http://www.w3.org/2000/svg" xmlns:xlink="http://www.w3.org/1999/xlink"><linearGradient id="SVGID_1_" gradientUnits="userSpaceOnUse" x1="217.258" x2="217.258" y1="512" y2="205.657"><stop offset="0" stop-color="#fd5900"></stop><stop offset="1" stop-color="#ffde00"></stop></linearGradient><linearGradient id="SVGID_2_" gradientUnits="userSpaceOnUse" x1="294.742" x2="294.742" y1="306.342" y2="0"><stop offset="0" stop-color="#ffedad"></stop><stop offset="1" stop-color="#ffffe5"></stop></linearGradient><g><path d="m419.063 352.882-123.553 3.727c-13.141.396-19.45 16.304-10.154 25.6l19.373 19.373c-17.395 6.847-36.011 10.418-54.729 10.418-82.71 0-150-67.29-150-150 0-14.678 2.169-29.296 6.447-43.449 1.977-6.541-3.043-13.094-9.873-12.889l-82.807 2.495c-4.707.142-8.677 3.548-9.532 8.179-2.81 15.211-4.235 30.575-4.235 45.664 0 66.777 26.004 129.558 73.223 176.777s110 73.223 176.777 73.223c45.72 0 90.065-12.436 129.072-36.075l19.421 19.421c9.001 9.002 24.417 3.405 25.547-9.275l10.416-116.864c.798-8.956-6.407-16.596-15.393-16.325z" fill="url(#SVGID_1_)" style="fill: rgb(255, 144, 41);"></path><path d="m438.776 73.223c-47.218-47.219-109.999-73.223-176.776-73.223-45.748 0-90.1 12.428-129.094 36.053l-19.398-19.398c-9.002-9.002-24.418-3.405-25.548 9.275l-10.415 116.863c-.798 8.955 6.407 16.596 15.393 16.325l123.552-3.726c13.141-.396 19.451-16.304 10.154-25.6l-19.372-19.372c17.412-6.849 36.028-10.42 54.728-10.42 82.71 0 150 67.29 150 150 0 14.676-2.169 29.294-6.447 43.449-1.977 6.541 3.043 13.094 9.873 12.888l82.807-2.495c4.707-.142 8.677-3.548 9.532-8.179 2.81-15.213 4.235-30.577 4.235-45.663 0-66.777-26.005-129.558-73.224-176.777z" fill="url(#SVGID_2_)" style="fill: rgb(226, 18, 18);"></path></g></svg>