<!-- icon666.com - MILLIONS vector ICONS FREE --><svg id="Layer_1" viewBox="0 0 512 512" xmlns="http://www.w3.org/2000/svg" xmlns:xlink="http://www.w3.org/1999/xlink" data-name="Layer 1"><linearGradient id="GradientFill_1" gradientUnits="userSpaceOnUse" x1="255.999" x2="256" y1="510.26" y2="1.74"><stop offset="0" stop-color="#6c54a3"></stop><stop offset="1" stop-color="#00b1d2"></stop></linearGradient><path d="m378.286 341.751a2.586 2.586 0 1 1 2.586-2.593 2.623 2.623 0 0 1 -2.586 2.593zm0-22.239a19.65 19.65 0 1 0 19.646 19.646 19.667 19.667 0 0 0 -19.646-19.646zm7.673-105.55-7.673 71.617-7.679-71.617a7.188 7.188 0 0 1 7.129-7.944h1.093a7.188 7.188 0 0 1 7.13 7.944zm-7.13-25h-1.093a24.249 24.249 0 0 0 -24.1 26.832l9.366 87.4a15.364 15.364 0 0 0 30.554 0l9.38-87.4a24.251 24.251 0 0 0 -24.111-26.832zm132.171 175.578a6.608 6.608 0 0 0 0-6.98l-126.67-219.394a6.982 6.982 0 0 0 -12.095 0l-126.667 219.394a6.99 6.99 0 0 0 6.051 10.48h253.328a6.626 6.626 0 0 0 6.05-3.5zm-101.352 74.61h-62.716v-54.036h62.716zm-409.642 71.11v-437.403h329.852v104.572l-72.481 125.545h-120.309a8.534 8.534 0 0 0 0 17.067h110.451l-16.731 28.982a24.061 24.061 0 0 0 20.831 36.091h78.239v125.146zm79.782-508.52h329.86v146.142l-10.53-18.253a24.051 24.051 0 0 0 -41.663 0l-10.523 18.253v-83.562a8.541 8.541 0 0 0 -8.544-8.529h-258.6zm222.412 426.187a8.54 8.54 0 0 0 -8.529-8.537h-156.6a8.537 8.537 0 0 0 0 17.074h156.6a8.549 8.549 0 0 0 8.529-8.537zm-173.662-39.884a8.54 8.54 0 0 0 8.53 8.537h65.1a8.534 8.534 0 0 0 0-17.067h-65.1a8.529 8.529 0 0 0 -8.53 8.53zm-26.389 48.657v-57.429h-57.422v57.429zm8.529-74.489h-74.488a8.523 8.523 0 0 0 -8.523 8.53v74.488a8.519 8.519 0 0 0 8.523 8.53h74.488a8.529 8.529 0 0 0 8.53-8.53v-74.488a8.534 8.534 0 0 0 -8.53-8.53zm17.86-90.591a8.534 8.534 0 0 0 8.53 8.53h65.1a8.534 8.534 0 0 0 0-17.067h-65.1a8.531 8.531 0 0 0 -8.53 8.537zm-26.389 48.65v-57.415h-57.422v57.415zm8.529-74.482h-74.488a8.519 8.519 0 0 0 -8.523 8.53v74.482a8.514 8.514 0 0 0 8.523 8.53h74.488a8.525 8.525 0 0 0 8.53-8.53v-74.482a8.529 8.529 0 0 0 -8.53-8.53zm17.86-50.707a8.534 8.534 0 0 1 8.53-8.53h156.6a8.534 8.534 0 0 1 0 17.067h-156.6a8.535 8.535 0 0 1 -8.53-8.537zm0-39.884a8.531 8.531 0 0 0 8.53 8.537h65.1a8.534 8.534 0 0 0 0-17.067h-65.1a8.534 8.534 0 0 0 -8.53 8.53zm-26.389 48.657v-57.422h-57.422v57.422zm8.529-74.482h-74.488a8.514 8.514 0 0 0 -8.523 8.53v74.489a8.523 8.523 0 0 0 8.523 8.53h74.488a8.534 8.534 0 0 0 8.53-8.53v-74.491a8.525 8.525 0 0 0 -8.53-8.53z" fill="url(#GradientFill_1)" fill-rule="evenodd"></path></svg>