<!-- icon666.com - MILLIONS vector ICONS FREE --><svg id="Arrow_Flat" enable-background="new 0 0 64 64" viewBox="0 0 64 64" xmlns="http://www.w3.org/2000/svg" xmlns:xlink="http://www.w3.org/1999/xlink"><linearGradient id="SVGID_1_" gradientUnits="userSpaceOnUse" x1="16.194" x2="44.48" y1="17.959" y2="40.619"><stop offset="0" stop-color="#ffeb73"></stop><stop offset="1" stop-color="#fcf09c"></stop></linearGradient><g><g><path d="m29.282 51.88-1.118-5.434h6.681c10.064 0 18.223-8.159 18.223-18.223-.001-10.064-8.16-18.223-18.224-18.223h-16.024c-2.948 0-5.581 2.155-5.861 5.09-.321 3.367 2.318 6.199 5.618 6.199h16.267c3.829 0 6.934 3.104 6.934 6.934 0 3.829-3.104 6.934-6.934 6.934h-6.681l1.118-5.434c0-1.88-2.421-2.828-3.847-1.501l-4.041 3.785-7.791 7.298c-.44.421-.669.957-.669 1.501 0 .536.229 1.072.669 1.493l7.791 7.298 4.041 3.785c1.427 1.326 3.848.378 3.848-1.502z" fill="url(#SVGID_1_)" style="fill: rgb(243, 63, 63);"></path></g></g></svg>