<svg width="60" height="60" viewBox="0 0 60 60" fill="none" xmlns="http://www.w3.org/2000/svg">
<path d="M48.75 56.25H11.25V3.75H43.125L48.75 9.375V56.25Z" fill="white"/>
<path d="M42.75 0H11.25C10.2554 0 9.30161 0.395089 8.59834 1.09835C7.8951 1.80161 7.5 2.75544 7.5 3.75V56.25C7.5 57.2445 7.8951 58.1985 8.59834 58.9016C9.30161 59.6048 10.2554 60 11.25 60H48.75C49.7445 60 50.6985 59.6048 51.4016 58.9016C52.1048 58.1985 52.5 57.2445 52.5 56.25V9.75L42.75 0ZM48.75 56.25H11.25V3.75H37.5V11.25C37.5 12.2446 37.8953 13.1984 38.5984 13.9017C39.3015 14.6049 40.2555 15 41.25 15H48.75V56.25ZM41.25 11.25V3.75L48.75 11.25H41.25Z" fill="#798288"/>
<path d="M34.711 20L39.2078 27.9177H44V30.7647H42.3662L41.3064 43.6946C41.2773 44.0503 41.1178 44.382 40.8595 44.6237C40.6012 44.8655 40.2631 44.9998 39.912 45H20.088C19.7367 45.0002 19.3982 44.866 19.1396 44.6242C18.8811 44.3824 18.7214 44.0506 18.6922 43.6946L17.6324 30.7647H16V27.9177H20.7908L25.2876 20L27.7124 21.4235L24.0248 27.9177H35.9738L32.2876 21.4235L34.711 20ZM39.555 30.7647H20.4436L21.3774 42.1529H38.624L39.555 30.7647ZM31.4 33.6118V39.3059H28.6V33.6118H31.4ZM25.8 33.6118V39.3059H23V33.6118H25.8ZM37 33.6118V39.3059H34.2V33.6118H37Z" fill="#798288"/>
</svg>
