<!-- icon666.com - MILLIONS vector ICONS FREE --><svg version="1.1" id="Capa_1" xmlns="http://www.w3.org/2000/svg" xmlns:xlink="http://www.w3.org/1999/xlink" x="0px" y="0px" viewBox="0 0 512 512" style="enable-background:new 0 0 512 512;" xml:space="preserve"><path style="" d="M500.879,97.683v317.493c0,4.552-3.69,8.241-8.241,8.241H188.534V8.241 c0-4.552,3.69-8.241,8.241-8.241h206.421c2.186,0,4.282,0.868,5.828,2.414l89.442,89.442 C500.01,93.401,500.879,95.497,500.879,97.683z" fill="#00C3FF"></path><path style="" d="M470.887,134.943c0-4.089-1.624-8.011-4.516-10.903l-94.78-94.78 c-2.892-2.891-6.813-4.516-10.903-4.516H215.321V0.004h-18.542c-4.552,0-8.241,3.69-8.241,8.241v16.499h-0.004v398.673h0.004v0.003 h26.783v-0.003h255.567V134.943H470.887z" fill="#00AAF0"></path><path style="fill: rgb(255, 181, 97);" d="M451.835,143.85v317.493c0,4.552-3.69,8.241-8.241,8.241H139.489V54.408 c0-4.552,3.69-8.241,8.241-8.241h206.421c2.186,0,4.282,0.868,5.828,2.414l89.442,89.442 C450.966,139.568,451.835,141.664,451.835,143.85z" fill="#FF5F5F"></path><g><path style="fill: rgb(244, 131, 82);" d="M451.835,143.85v317.493c0,4.552-3.69,8.241-8.241,8.241h-10.693V121.502l16.52,16.52 C450.966,139.568,451.835,141.664,451.835,143.85z" fill="#F44D4D"></path><path style="fill: rgb(244, 131, 82);" d="M317.298,459.659v9.924H139.489V158.672h99.571c5.36,0,9.834,4.004,10.31,9.228l0.52,5.697 c0.156,1.79,3.281,38.617-9.239,79.286c15.186,5.71,25.43,20.013,25.43,36.324c0,18.178-12.62,33.77-30.686,37.907 c-1.551,0.36-3.169,0.633-4.809,0.808c-3.984,12.119-10.879,22.982-19.896,31.771l8.659,21.29l43.495,10.558 C294.455,399.328,317.298,427.749,317.298,459.659z" fill="#F44D4D"></path></g><path style="" d="M295.665,459.75v44.18c0,4.457-3.613,8.07-8.07,8.07H19.191c-4.457,0-8.07-3.613-8.07-8.07v-44.18 c0-24.497,16.699-45.843,40.486-51.745l73.606-18.275h56.371l73.595,18.275C278.966,413.907,295.665,435.252,295.665,459.75z" fill="#F2F2F0"></path><polygon style="" points="172.116,512 134.67,512 142.623,455.021 144.199,443.689 162.598,443.689 164.174,455.021 " fill="#00C3FF"></polygon><polygon style="" points="164.174,455.021 142.623,455.021 144.199,443.689 162.598,443.689 " fill="#00AAF0"></polygon><g><path style="" d="M47.893,409.07c-13.641,12.444-22.237,33.1-22.237,50.682v52.243h-6.459 c-4.457,0-8.07-3.613-8.07-8.07v-44.173C11.128,436.547,26.1,416.166,47.893,409.07z" fill="#E5E5DA"></path><path style="" d="M258.897,409.07c13.641,12.444,22.237,33.1,22.237,50.682v52.243h6.459 c4.457,0,8.07-3.613,8.07-8.07v-44.173C295.662,436.547,280.69,416.166,258.897,409.07z" fill="#E5E5DA"></path></g><polygon style="" points="141.645,448.524 129.895,428.173 141.645,407.822 165.144,407.822 176.893,428.173 165.144,448.524 " fill="#00C3FF"></polygon><g><rect x="123.75" y="343.95" style="" width="59.28" height="54.913" fill="#F7C9A4"></rect><path style="" d="M246.006,290.836c0,10.583-7.352,19.451-17.22,21.762c-1.651,0.397-3.366,0.603-5.137,0.603 c-12.354,0-22.365-10.011-22.365-22.365c0-12.346,10.011-22.357,22.365-22.357c1.842,0,3.628,0.222,5.335,0.643 C238.757,271.512,246.006,280.333,246.006,290.836z" fill="#F7C9A4"></path><path style="" d="M105.512,290.836c0,12.354-10.011,22.365-22.365,22.365c-1.77,0-3.493-0.206-5.145-0.603 c-9.876-2.318-17.22-11.179-17.22-21.762c0-10.504,7.249-19.316,17.022-21.706c1.707-0.429,3.501-0.651,5.343-0.651 C95.501,268.479,105.512,278.491,105.512,290.836z" fill="#F7C9A4"></path></g><path style="" d="M215.32,226.925v78.416c0,34.202-27.724,61.926-61.926,61.926s-61.926-27.724-61.926-61.926v-78.416 H215.32z" fill="#FFD9B6"></path><g><path style="" d="M125.753,297.97c-4.142,0-7.5-3.358-7.5-7.5v-5.223c0-4.142,3.358-7.5,7.5-7.5 c4.142,0,7.5,3.358,7.5,7.5v5.223C133.253,294.613,129.896,297.97,125.753,297.97z" fill="#493030"></path><path style="" d="M181.545,297.97c-4.142,0-7.5-3.358-7.5-7.5v-5.223c0-4.142,3.358-7.5,7.5-7.5s7.5,3.358,7.5,7.5 v5.223C189.045,294.613,185.688,297.97,181.545,297.97z" fill="#493030"></path></g><path style="" d="M91.505,268.477c0,0-18.888-63.779,13.955-75.423c0,0,4.138-15.349,20.947-15.349h96.069 c4.505,0,8.165,3.613,8.241,8.117c0.256,15.247-1.043,49.617-15.349,82.655l-7.343-1.23c-3.971-0.665-6.88-4.102-6.88-8.128v-2.953 c0-4.084-2.984-7.552-7.024-8.151c-12.315-1.828-40.229-5.248-79.019-5.69c-4.59-0.052-8.348,3.652-8.348,8.243v8.474 c0,4.061-2.958,7.516-6.969,8.143L91.505,268.477z" fill="#694B4B"></path><g><path style="" d="M64.258,486.133V512H48.805v-25.867c0-4.265,3.461-7.726,7.726-7.726 C60.806,478.406,64.258,481.867,64.258,486.133z" fill="#E5E5DA"></path><path style="" d="M257.981,486.133V512h-15.453v-25.867c0-4.265,3.461-7.726,7.726-7.726 C254.52,478.406,257.981,481.867,257.981,486.133z" fill="#E5E5DA"></path><path style="" d="M119.106,378.112l34.288,20.658l-12.053,24.662c-2.506,5.129-9.342,6.218-13.318,2.122 l-23.312-24.013c-2.262-2.33-2.945-5.77-1.744-8.787l4.228-10.628C109.077,377.397,114.749,375.487,119.106,378.112z" fill="#E5E5DA"></path><path style="" d="M187.682,378.112l-34.288,20.658l12.053,24.662c2.506,5.129,9.342,6.218,13.318,2.122l23.312-24.013 c2.262-2.33,2.945-5.77,1.744-8.787l-4.228-10.628C197.712,377.397,192.039,375.487,187.682,378.112z" fill="#E5E5DA"></path></g><g><path style="" d="M284.949,114.698H173.116c-4.268,0-7.726-3.459-7.726-7.726s3.459-7.726,7.726-7.726h111.833 c4.268,0,7.726,3.459,7.726,7.726S289.216,114.698,284.949,114.698z" fill="#F2F2F0"></path><path style="" d="M341.464,373.942h-21.286c-4.268,0-7.726-3.459-7.726-7.726c0-4.268,3.459-7.726,7.726-7.726h21.286 c4.268,0,7.726,3.459,7.726,7.726C349.19,370.483,345.732,373.942,341.464,373.942z" fill="#F2F2F0"></path><path style="" d="M415.273,373.942h-47.816c-4.268,0-7.726-3.459-7.726-7.726c0-4.268,3.459-7.726,7.726-7.726h47.816 c4.268,0,7.726,3.459,7.726,7.726C423,370.483,419.541,373.942,415.273,373.942z" fill="#F2F2F0"></path><path style="" d="M415.273,401.34h-95.096c-4.268,0-7.726-3.459-7.726-7.726c0-4.268,3.459-7.726,7.726-7.726h95.096 c4.268,0,7.726,3.459,7.726,7.726C423,397.881,419.541,401.34,415.273,401.34z" fill="#F2F2F0"></path><path style="" d="M384.775,311.959c-4.268,0-7.726-3.459-7.726-7.726v-138.35c0-4.268,3.459-7.726,7.726-7.726 c4.268,0,7.726,3.459,7.726,7.726v138.35C392.501,308.501,389.042,311.959,384.775,311.959z" fill="#F2F2F0"></path><path style="" d="M360.944,311.959c-4.268,0-7.726-3.459-7.726-7.726v-138.35c0-4.268,3.459-7.726,7.726-7.726 c4.268,0,7.726,3.459,7.726,7.726v138.35C368.67,308.501,365.211,311.959,360.944,311.959z" fill="#F2F2F0"></path><path style="" d="M337.114,311.959c-4.268,0-7.726-3.459-7.726-7.726v-138.35c0-4.268,3.459-7.726,7.726-7.726 c4.268,0,7.726,3.459,7.726,7.726v138.35C344.84,308.501,341.382,311.959,337.114,311.959z" fill="#F2F2F0"></path></g></svg>