<!-- icon666.com - MILLIONS vector ICONS FREE --><svg version="1.1" id="Capa_1" xmlns="http://www.w3.org/2000/svg" xmlns:xlink="http://www.w3.org/1999/xlink" x="0px" y="0px" viewBox="0 0 512 512" style="enable-background:new 0 0 512 512;" xml:space="preserve"><path style="fill:#8897B7;" d="M444.116,8.322V383.43c0,4.598-3.724,8.322-8.322,8.322H183.059c-4.598,0-8.322-3.724-8.322-8.322 V8.322c0-4.587,3.724-8.322,8.322-8.322h252.735C440.392,0,444.116,3.734,444.116,8.322z"></path><path style="fill:#65768E;" d="M422.021,36.543v355.208H183.059c-4.598,0-8.322-3.724-8.322-8.322V14.698h225.439 C412.222,14.698,422.021,24.497,422.021,36.543z"></path><path style="fill:#9FB3D1;" d="M408.498,36.543v375.108c0,4.598-3.724,8.322-8.322,8.322H147.441c-4.598,0-8.322-3.724-8.322-8.322 V36.543c0-4.598,3.724-8.322,8.322-8.322h252.735C404.774,28.221,408.498,31.946,408.498,36.543z"></path><path style="fill:#8897B7;" d="M386.404,64.754v355.219H147.441c-4.598,0-8.322-3.724-8.322-8.322V42.91h225.439 C376.605,42.91,386.404,52.719,386.404,64.754z"></path><path style="fill:#B8CCE0;" d="M372.881,64.754v375.108c0,4.598-3.724,8.322-8.322,8.322H111.824c-4.598,0-8.322-3.724-8.322-8.322 V64.754c0-4.587,3.724-8.322,8.322-8.322h252.735C369.157,56.433,372.881,60.167,372.881,64.754z"></path><path style="fill:#9FB3D1;" d="M350.786,92.976v355.208H111.824c-4.598,0-8.322-3.724-8.322-8.322V71.131h225.439 C340.987,71.131,350.786,80.93,350.786,92.976z"></path><path style="fill:#DEF0FF;" d="M337.263,92.976v375.108c0,4.598-3.724,8.322-8.322,8.322H76.206c-4.598,0-8.322-3.724-8.322-8.322 V92.976c0-4.598,3.724-8.322,8.322-8.322h252.735C333.539,84.654,337.263,88.378,337.263,92.976z"></path><path style="fill:#B8CCE0;" d="M197.372,381.589v94.817H95.679v-94.817c0-6.897,5.586-12.483,12.493-12.483h76.717 C191.786,369.106,197.372,374.692,197.372,381.589z"></path><path style="fill:#EA3411;" d="M176.841,510.864l-24.617-23.124c-3.203-3.008-8.193-3.008-11.395,0l-24.617,23.124 c-2.656,2.495-7.01,0.612-7.01-3.033V390.95c0-4.596,3.726-8.322,8.322-8.322h58.006c4.596,0,8.322,3.726,8.322,8.322v116.881 C183.851,511.475,179.497,513.359,176.841,510.864z"></path><g><path style="fill:#8897B7;" d="M264.002,423.156c-9.02,0-14.06-4.05-16.7-7.447c-1.298-1.671-2.261-3.495-2.964-5.373l-10.099,10.1 c-3.047,3.046-7.987,3.046-11.033,0c-3.047-3.048-3.047-7.987,0-11.034l22.58-22.58c2.484-2.483,6.323-3.003,9.377-1.263 c3.054,1.738,4.568,5.304,3.699,8.709c-0.818,3.326-1.147,9.434,0.77,11.879c0.273,0.348,1.102,1.406,4.369,1.406 c9.101,0,11.389-7.27,11.411-7.344c1.239-4.126,5.59-6.469,9.716-5.23c4.126,1.239,6.468,5.589,5.229,9.716 C288.441,411.081,280.466,423.156,264.002,423.156z"></path><path style="fill:#8897B7;" d="M238.19,367.431h-13.462c-4.309,0-7.802-3.493-7.802-7.802s3.493-7.802,7.802-7.802h13.462 c4.309,0,7.802,3.493,7.802,7.802S242.499,367.431,238.19,367.431z"></path><path style="fill:#8897B7;" d="M294.53,248.822H112.352c-4.309,0-7.802-3.492-7.802-7.802s3.493-7.802,7.802-7.802H294.53 c4.309,0,7.802,3.492,7.802,7.802S298.839,248.822,294.53,248.822z"></path><path style="fill:#8897B7;" d="M294.53,280.402H112.352c-4.309,0-7.802-3.492-7.802-7.802c0-4.309,3.493-7.802,7.802-7.802H294.53 c4.309,0,7.802,3.492,7.802,7.802S298.839,280.402,294.53,280.402z"></path><path style="fill:#8897B7;" d="M294.53,311.982H112.352c-4.309,0-7.802-3.492-7.802-7.802c0-4.309,3.493-7.802,7.802-7.802H294.53 c4.309,0,7.802,3.492,7.802,7.802S298.839,311.982,294.53,311.982z"></path></g><path style="fill:#B8CCE0;" d="M205.501,201.42c-23.259,0-42.181-18.922-42.181-42.181s18.922-42.181,42.181-42.181 c23.258,0,42.181,18.922,42.181,42.181S228.76,201.42,205.501,201.42z"></path><circle style="fill:#006DF3;" cx="205.5" cy="159.24" r="28.658"></circle><g><path style="fill:#349BF7;" d="M267.948,167.197c-4.309,0-7.802-3.493-7.802-7.802v-0.312c0-4.309,3.493-7.802,7.802-7.802 s7.802,3.492,7.802,7.802v0.312C275.75,163.704,272.257,167.197,267.948,167.197z"></path><path style="fill:#349BF7;" d="M290.904,167.197c-4.309,0-7.802-3.493-7.802-7.802v-0.312c0-4.309,3.493-7.802,7.802-7.802 s7.802,3.492,7.802,7.802v0.312C298.705,163.704,295.212,167.197,290.904,167.197z"></path><path style="fill:#349BF7;" d="M122.274,167.197c-4.309,0-7.802-3.493-7.802-7.802v-0.312c0-4.309,3.493-7.802,7.802-7.802 c4.309,0,7.802,3.492,7.802,7.802v0.312C130.076,163.704,126.583,167.197,122.274,167.197z"></path><path style="fill:#349BF7;" d="M145.23,167.197c-4.309,0-7.802-3.493-7.802-7.802v-0.312c0-4.309,3.493-7.802,7.802-7.802 s7.802,3.492,7.802,7.802v0.312C153.032,163.704,149.539,167.197,145.23,167.197z"></path></g></svg>