<!-- icon666.com - MILLIONS vector ICONS FREE --><svg viewBox="0 0 512.00137 512" xmlns="http://www.w3.org/2000/svg"><path d="m396.164062 507.082031-113.792968-118.933593c-6.714844-7.023438-5.066406-18.457032 3.296875-23.332032l107.273437-62.449218c5.714844-3.3125 13.007813-2.488282 17.855469 2.066406l96.523437 91.378906c4.453126 4.230469 5.886719 10.734375 3.617188 16.449219-2.269531 5.699219-7.792969 9.449219-13.929688 9.449219h-75.003906v75c0 6.125-3.722656 11.648437-9.417968 13.917968-5.488282 2.230469-12.078126.996094-16.421876-3.546875zm0 0" fill="#ff4949" style="fill: rgb(71, 102, 255);"></path><path d="m99.417969 510.628906c-5.699219-2.273437-9.421875-7.792968-9.421875-13.917968v-75h-75c-6.140625 0-11.660156-3.75-13.933594-9.449219-2.269531-5.714844-.832031-12.21875 3.621094-16.449219l96.519531-91.378906c4.820313-4.558594 12.144531-5.378906 17.855469-2.066406l107.273437 62.449218c8.363281 4.875 10.015625 16.308594 3.296875 23.332032l-113.792968 118.933593c-4.34375 4.542969-10.929688 5.777344-16.417969 3.546875zm0 0" fill="#ff6c6c" style="fill: rgb(107, 171, 255);"></path><path d="m462.105469 206.804688c0-7.800782-3-15.601563-9-21.601563l-24.601563-24.601563 9-33.597656c4.5-16.199218-5.097656-33-21.601562-37.503906l-33.597656-9-9.003907-33.597656c-4.199219-15.902344-20.699219-26.101563-37.199219-21.601563l-33.902343 9-24.597657-25.601562c-6-6-13.800781-8.699219-21.601562-8.699219s-15.601562 2.699219-21.597656 8.699219l-24.601563 25.601562-33.902343-9c-16.199219-4.5-33 5.699219-37.199219 21.601563l-9 33.597656-33.601563 9c-16.5 4.503906-26.101562 21.304688-21.601562 37.503906l9 33.597656-24.597656 24.601563c-12 12-12 31.203125 0 43.203125l24.597656 24.597656-9 33.902344c-4.5 16.199219 5.101562 33 21.601562 37.199219l33.601563 9 9 33.902343c4.199219 15.601563 20.097656 25.203126 35.402343 21.902344l42.898438-2.101562 17.402344 17.402344c6 5.699218 13.800781 8.699218 21.597656 8.699218 7.800781 0 15.601562-3 21.601562-8.699218l17.402344-17.402344 42.898438 2.101562c15.601562 3.300782 31.203125-6.300781 35.402344-21.902344l9-33.902343 33.902343-9c16.199219-4.199219 25.800781-21 21.296875-37.199219l-9-33.902344 24.601563-24.597656c6-6 9-13.800781 9-21.601562zm0 0" fill="#ffd400"></path><path d="m453.105469 228.40625-24.601563 24.597656 9 33.902344c4.5 16.199219-5.097656 33-21.296875 37.199219l-33.902343 9-9 33.902343c-4.199219 15.601563-19.800782 25.203126-35.402344 21.902344l-42.902344-2.101562-17.398438 17.402344c-6 5.699218-13.800781 8.699218-21.601562 8.699218v-412.910156c7.800781 0 15.601562 2.699219 21.601562 8.699219l24.597657 25.601562 33.902343-9c16.5-4.5 33 5.699219 37.199219 21.597657l9.003907 33.601562 33.597656 9c16.503906 4.5 26.101562 21.300781 21.601562 37.5l-9 33.601562 24.601563 24.601563c6 6 9 13.800781 9 21.601563 0 7.800781-3 15.601562-9 21.601562zm0 0" fill="#fdbf00"></path><path d="m391.003906 210.707031c0-74.402343-60.601562-135.003906-135.003906-135.003906-74.398438 0-135.003906 60.601563-135.003906 135.003906 0 74.398438 60.605468 135 135.003906 135 74.402344 0 135.003906-60.601562 135.003906-135" fill="#fdbf00"></path><path d="m391.003906 210.707031c0 74.398438-60.601562 135-135.003906 135v-270.003906c74.402344 0 135.003906 60.601563 135.003906 135.003906" fill="#ff9f00"></path><path d="m361.003906 210.707031c0 57.898438-47.101562 105-105.003906 105s-105-47.101562-105-105c0-57.902343 47.097656-105.003906 105-105.003906s105.003906 47.101563 105.003906 105.003906zm0 0" fill="#ffd400"></path><path d="m361.003906 210.707031c0 57.898438-47.101562 105-105.003906 105v-210.003906c57.902344 0 105.003906 47.101563 105.003906 105.003906zm0 0" fill="#fdbf00"></path><path d="m326.5 191.203125-70.5 70.503906-4.5 4.5c-5.699219 6-15.296875 6-21 0l-45-45.003906c-6-5.699219-6-15.296875 0-21 5.699219-6 15.296875-6 21 0l34.5 34.203125 15-15 49.503906-49.203125c5.699219-6 15.296875-6 21 0 5.996094 5.703125 5.996094 15.300781-.003906 21zm0 0" fill="#56c225"></path><path d="m326.5 170.207031c6 5.699219 6 15.296875 0 20.996094l-70.5 70.503906v-42.300781l49.503906-49.199219c5.699219-6.003906 15.296875-6.003906 20.996094 0zm0 0" fill="#49a520"></path></svg>