<!-- icon666.com - MILLIONS vector ICONS FREE --><svg version="1.1" id="Capa_1" xmlns="http://www.w3.org/2000/svg" xmlns:xlink="http://www.w3.org/1999/xlink" x="0px" y="0px" viewBox="0 0 512 512" style="enable-background:new 0 0 512 512;" xml:space="preserve"><polygon style="" points="403.2,504 403.2,8 123.2,8 8,121.6 8,504 " fill="#FFFFFF"></polygon><polygon style="" points="371.2,472 371.2,40 136.8,40 40,139.2 40,472 " fill="#D3D7DA"></polygon><polygon style="" points="136,139.2 40,139.2 136,40 " fill="#2EA2DB"></polygon><path style="" d="M345.6,187.2L345.6,187.2c-87.2,0-158.4,71.2-158.4,158.4l0,0c0,87.2,71.2,158.4,158.4,158.4l0,0 c87.2,0,158.4-71.2,158.4-158.4l0,0C504,258.4,432.8,187.2,345.6,187.2z" fill="#FFFFFF"></path><g><polygon style="" points="332.8,179.2 358.4,179.2 358.4,139.2 380,139.2 380,115.2 311.2,115.2 311.2,139.2 332.8,139.2 " fill="#193651"></polygon><path style="" d="M458.4,224l19.2-20l11.2,10.4l12-12l-34.4-33.6l-12,12l11.2,10.4l-19.2,20c0,0-20-12.8-34.4-18.4V0 H120L0,118.4V512h411.2v-13.6c59.2-25.6,100.8-84,100.8-152.8C512,297.6,491.2,254.4,458.4,224z M16,496V125.6L126.4,16h268.8 v171.2c-16-4.8-32-7.2-49.6-7.2c-40,0-100,32-100,32l-19.2-20l11.2-10.4l-12-12l-34.4,33.6l12,12l11.2-10.4l19.2,20 c-32.8,30.4-53.6,73.6-53.6,121.6c0,66.4,39.2,124,96,150.4H16V496z M345.6,496L345.6,496c-83.2,0-150.4-67.2-150.4-150.4 s67.2-150.4,150.4-150.4S496,262.4,496,345.6S428.8,496,345.6,496z" fill="#193651"></path></g><path style="fill: rgb(255, 102, 0);" d="M424,353.6c0,0,0-1.6,0-4c0-1.6,0-3.2,0-4.8c0-0.8,0-1.6,0-3.2c0-0.8,0-1.6,0-2.4c0-1.6,0-4,0-5.6 c-0.8-2.4-0.8-4.8-1.6-8c-0.8-5.6-3.2-11.2-5.6-17.6c-3.2-6.4-6.4-12.8-11.2-19.2c-4.8-6.4-11.2-12.8-18.4-18.4 c-7.2-5.6-15.2-10.4-24.8-13.6c-8.8-3.2-19.2-5.6-28-6.4c-12,0-20.8,0-31.2,2.4c-9.6,2.4-19.2,5.6-28,10.4S258.4,273.6,252,280 s-12,13.6-16.8,20c-4,7.2-7.2,13.6-9.6,20c-0.8,3.2-2.4,6.4-3.2,8.8c-0.8,3.2-1.6,5.6-1.6,8c-1.6,4.8-1.6,8.8-1.6,11.2 c0,2.4-0.8,4-0.8,4s0-1.6,0-4s-0.8-6.4,0-11.2c0-2.4,0.8-5.6,0.8-8c0.8-3.2,0.8-6.4,1.6-9.6c1.6-6.4,4-14.4,7.2-22.4 c4-8,8.8-16,14.4-24c6.4-8,14.4-15.2,23.2-22.4c8.8-7.2,19.2-12,30.4-16.8c11.2-4,24.8-6.4,35.2-7.2c13.6-0.8,25.6,0,37.6,3.2 s24,7.2,34.4,13.6c10.4,6.4,20,12.8,28,20.8s14.4,16.8,20,24.8c4.8,8.8,8.8,16.8,12,24.8c1.6,4,2.4,7.2,3.2,11.2 c0.8,4,1.6,7.2,2.4,10.4c0,1.6,0.8,3.2,0.8,4.8c0,0.8,0,2.4,0,3.2c0,1.6,0.8,3.2,0.8,4.8c0,2.4,0.8,4,0.8,4L424,353.6z" fill="#F16051"></path><g><path style="" d="M353.6,419.2V316l-12.8,102.4c-10.4,2.4-18.4,12-18.4,23.2c0,12.8,10.4,23.2,23.2,23.2 s23.2-10.4,23.2-23.2C369.6,431.2,362.4,422.4,353.6,419.2z" fill="#193651"></path><rect x="292.8" y="81.6" style="" width="16" height="16" fill="#193651"></rect><rect x="245.6" y="81.6" style="" width="16" height="16" fill="#193651"></rect><rect x="197.6" y="81.6" style="" width="16" height="16" fill="#193651"></rect><rect x="67.2" y="259.2" style="" width="81.6" height="16" fill="#193651"></rect><rect x="67.2" y="318.4" style="" width="81.6" height="16" fill="#193651"></rect><rect x="67.2" y="377.6" style="" width="81.6" height="16" fill="#193651"></rect></g></svg>