<!-- icon666.com - MILLIONS vector ICONS FREE --><svg viewBox="0 -23 453 453" xmlns="http://www.w3.org/2000/svg"><path d="m0 374.230469h453v33.121093h-453zm0 0" fill="#6fe3ff"></path><path d="m351.210938 0 59.210937 337.089844-98.480469 17.429687-59.210937-337.078125zm27.617187 307.511719-13.027344-74.132813-47.269531 8.359375 13.027344 74.140625zm-17.019531-96.871094-3.648438-20.761719-47.269531 8.371094 3.648437 20.761719zm-44.296875-113.449219c10.410156-1.792968 18.714843-9.6875 21.03125-19.996094 2.316406-10.304687-1.808594-20.996093-10.453125-27.070312-8.644532-6.074219-20.097656-6.339844-29.011719-.667969s-13.527344 16.160157-11.6875 26.5625c2.5 14.144531 15.964844 23.609375 30.121094 21.171875zm0 0" fill="#e48e66"></path><g fill="#f8ec7d"><path d="m365.800781 233.378906 13.027344 74.132813-47.269531 8.367187-13.027344-74.140625zm0 0"></path><path d="m358.160156 189.878906 3.648438 20.761719-47.269532 8.371094-3.648437-20.761719zm0 0"></path><path d="m338.601562 66.960938c2.449219 14.140624-7.023437 27.589843-21.160156 30.050781-14.140625 2.460937-27.597656-6.996094-30.070312-21.132813-2.472656-14.136718 6.976562-27.605468 21.109375-30.089844 14.15625-2.4375 27.617187 7.027344 30.121093 21.171876zm0 0"></path></g><path d="m244 32.308594v302.132812c0 11.039063-9.421875 19.789063-20.421875 19.789063h-60c-5.226563.039062-10.25-2.027344-13.933594-5.738281-3.683593-3.707032-5.71875-8.746094-5.644531-13.972657h-.421875v-302.160156h.421875c0-11.039063 8.578125-20.410156 19.578125-20.410156h60c11.191406.15625 20.234375 9.171875 20.421875 20.359375zm-26 287.792968v-75.28125h-48v75.28125zm0-98.371093v-21.070313h-48v21.070313zm1.578125-145.761719c-.054687-14.34375-11.71875-25.933594-26.066406-25.898438-14.34375.035157-25.949219 11.6875-25.929688 26.03125.015625 14.347657 11.652344 25.96875 25.996094 25.96875 14.390625-.023437 26.03125-11.710937 26-26.101562zm0 0" fill="#e48e66"></path><path d="m170 244.820312h48v75.28125h-48zm0 0" fill="#f8ec7d"></path><path d="m170 200.660156h48v21.070313h-48zm0 0" fill="#f8ec7d"></path><path d="m193.578125 49.878906c10.566406-.039062 20.117187 6.296875 24.1875 16.046875s1.859375 20.992188-5.597656 28.476563c-7.460938 7.484375-18.695313 9.734375-28.460938 5.699218-9.761719-4.039062-16.132812-13.566406-16.128906-24.132812-.023437-14.382812 11.617187-26.066406 26-26.089844zm0 0" fill="#f8ec7d"></path><path d="m143.578125 334.519531v20h-100v-342.289062h100zm-25.578125-14.417969v-75.28125h-48v75.28125zm0-98.371093v-21.070313h-48v21.070313zm1.578125-145.761719c-.054687-14.34375-11.71875-25.933594-26.066406-25.898438-14.34375.035157-25.949219 11.6875-25.929688 26.03125.015625 14.347657 11.652344 25.96875 25.996094 25.96875 14.390625-.023437 26.03125-11.710937 26-26.101562zm0 0" fill="#e48e66"></path><path d="m70 244.820312h48v75.28125h-48zm0 0" fill="#f8ec7d"></path><path d="m70 200.660156h48v21.070313h-48zm0 0" fill="#f8ec7d"></path><path d="m93.578125 49.878906c10.566406-.039062 20.117187 6.296875 24.1875 16.046875s1.859375 20.992188-5.597656 28.476563c-7.460938 7.484375-18.695313 9.734375-28.460938 5.699218-9.761719-4.039062-16.132812-13.566406-16.128906-24.132812-.023437-14.382812 11.617187-26.066406 26-26.089844zm0 0" fill="#f8ec7d"></path></svg>