<!-- icon666.com - MILLIONS vector ICONS FREE --><svg id="Layer_1" viewBox="0 0 512 512" xmlns="http://www.w3.org/2000/svg" xmlns:xlink="http://www.w3.org/1999/xlink" data-name="Layer 1"><linearGradient id="GradientFill_1" gradientUnits="userSpaceOnUse" x1="75.058" x2="436.943" y1="436.943" y2="75.058"><stop offset="0" stop-color="#e81e25"></stop><stop offset=".108" stop-color="#ea3522"></stop><stop offset=".416" stop-color="#f1711c"></stop><stop offset=".678" stop-color="#f59d17"></stop><stop offset=".881" stop-color="#f8b814"></stop><stop offset="1" stop-color="#f9c213"></stop></linearGradient><path d="m396.383 239.5-201.56-116.4a18.673 18.673 0 0 0 -19.094 0 18.9 18.9 0 0 0 -9.54 16.5v232.8a18.778 18.778 0 0 0 9.539 16.5 18.829 18.829 0 0 0 19.091 0l201.564-116.4a19.042 19.042 0 0 0 0-33zm-8 19.2-201.561 116.3a2.537 2.537 0 0 1 -3.092 0 2.746 2.746 0 0 1 -1.54-2.6v-232.8a2.743 2.743 0 0 1 1.538-2.6 2.637 2.637 0 0 1 3.09 0l201.564 116.3a3.139 3.139 0 0 1 0 5.4zm-132.405 253.3c-141.151-.012-255.978-114.807-255.978-256s114.841-256 256-256 256 114.8 256 256-114.826 255.988-255.978 256z" fill="url(#GradientFill_1)" fill-rule="evenodd" style="fill: rgb(75, 231, 94);"></path></svg>