<!-- icon666.com - MILLIONS vector ICONS FREE --><svg viewBox="-56 0 480 480" xmlns="http://www.w3.org/2000/svg" xmlns:xlink="http://www.w3.org/1999/xlink"><linearGradient id="a"><stop offset="0" stop-color="#fff200"></stop><stop offset="1" stop-color="#cd118c"></stop></linearGradient><linearGradient id="b" gradientUnits="userSpaceOnUse" x1="-73.92" x2="382.08" xlink:href="#a" y1="461.432" y2="21.432"></linearGradient><linearGradient id="c" gradientUnits="userSpaceOnUse" x1="20.936" x2="476.936" xlink:href="#a" y1="559.728" y2="119.728"></linearGradient><linearGradient id="d" gradientUnits="userSpaceOnUse" x1="-180.096" x2="275.904" xlink:href="#a" y1="351.392" y2="-88.608"></linearGradient><linearGradient id="e" gradientUnits="userSpaceOnUse" x1="-151.168" x2="304.832" xlink:href="#a" y1="381.376" y2="-58.624"></linearGradient><linearGradient id="f" gradientUnits="userSpaceOnUse" x1="-120.264" x2="335.736" xlink:href="#a" y1="413.4" y2="-26.6"></linearGradient><linearGradient id="g" gradientUnits="userSpaceOnUse" x1="-85.592" x2="370.408" xlink:href="#a" y1="449.328" y2="9.328"></linearGradient><linearGradient id="h" gradientUnits="userSpaceOnUse" x1="-89.84" x2="366.16" xlink:href="#a" y1="444.928" y2="4.928"></linearGradient><linearGradient id="i" gradientUnits="userSpaceOnUse" x1="-110.352" x2="345.648" xlink:href="#a" y1="423.672" y2="-16.328"></linearGradient><linearGradient id="j" gradientUnits="userSpaceOnUse" x1="-44.776" x2="411.224" xlink:href="#a" y1="491.632" y2="51.632"></linearGradient><linearGradient id="k" gradientUnits="userSpaceOnUse" x1="-100.008" x2="355.992" xlink:href="#a" y1="434.392" y2="-5.608"></linearGradient><linearGradient id="l" gradientUnits="userSpaceOnUse" x1="-47.936" x2="408.064" xlink:href="#a" y1="488.36" y2="48.36"></linearGradient><linearGradient id="m" gradientUnits="userSpaceOnUse" x1="2.208" x2="458.208" xlink:href="#a" y1="540.328" y2="100.328"></linearGradient><linearGradient id="n" gradientUnits="userSpaceOnUse" x1="-32.96" x2="423.04" xlink:href="#a" y1="503.872" y2="63.872"></linearGradient><linearGradient id="o" gradientUnits="userSpaceOnUse" x1="10.624" x2="466.624" xlink:href="#a" y1="549.048" y2="109.048"></linearGradient><linearGradient id="p" gradientUnits="userSpaceOnUse" x1="19.04" x2="475.04" xlink:href="#a" y1="557.768" y2="117.768"></linearGradient><linearGradient id="q" gradientUnits="userSpaceOnUse" x1="42.184" x2="498.184" xlink:href="#a" y1="581.752" y2="141.752"></linearGradient><linearGradient id="r" gradientUnits="userSpaceOnUse" x1="50.6" x2="506.6" xlink:href="#a" y1="590.472" y2="150.472"></linearGradient><path d="m336 60.6875-60.6875-60.6875h-275.3125v456h336zm-56-33.375 28.6875 28.6875h-28.6875zm-264 412.6875v-424h248v56h56v368zm0 0" fill="url(#b)"></path><path d="m320 16v16h32v432h-328v16h344v-464zm0 0" fill="url(#c)"></path><path d="m56 105.886719 19.054688 38.113281h20.945312v-64h-16v38.113281l-19.054688-38.113281h-20.945312v64h16zm0 0" fill="url(#d)"></path><path d="m152 128h-32v-8h32v-16h-32v-8h32v-16h-48v64h48zm0 0" fill="url(#e)"></path><path d="m190.777344 144 5.222656-31.335938 5.222656 31.335938h21.714844l8.984375-62.863281-15.84375-2.273438-4.375 30.671875-4.925781-29.535156h-21.554688l-4.925781 29.535156-4.375-30.671875-15.84375 2.273438 8.984375 62.863281zm0 0" fill="url(#f)"></path><path d="m240 120h32v8h-32v16h48v-40h-32v-8h32v-16h-48zm0 0" fill="url(#g)"></path><path d="m40 192h248v16h-248zm0 0" fill="url(#h)"></path><path d="m40 232h80v16h-80zm0 0" fill="url(#i)"></path><path d="m144 232h144v16h-144zm0 0" fill="url(#j)"></path><path d="m40 272h40v16h-40zm0 0" fill="url(#k)"></path><path d="m104 272h128v16h-128zm0 0" fill="url(#l)"></path><path d="m256 272h32v16h-32zm0 0" fill="url(#m)"></path><path d="m40 416h144v-104h-144zm16-88h112v72h-112zm0 0" fill="url(#n)"></path><path d="m208 312h80v16h-80zm0 0" fill="url(#o)"></path><path d="m208 352h32v16h-32zm0 0" fill="url(#p)"></path><path d="m256 352h32v16h-32zm0 0" fill="url(#q)"></path><path d="m208 392h80v16h-80zm0 0" fill="url(#r)"></path></svg>