<!-- icon666.com - MILLIONS vector ICONS FREE --><svg id="Capa_1" enable-background="new 0 0 507.769 507.769" viewBox="0 0 507.769 507.769" xmlns="http://www.w3.org/2000/svg"><g><path d="m384.813 0h-226.637c-11.712 0-51.306 82.175-51.306 82.175s-71.838 23.652-71.838 35.411v360.449c0 16.395 13.338 29.734 29.734 29.734h320.047c16.395 0 29.733-13.339 29.733-29.734v-448.301c0-16.396-13.338-29.734-29.733-29.734z" fill="#edf5fa"></path><path d="m384.813 0h-30c16.395 0 29.733 13.338 29.733 29.733v448.302c0 16.395-13.338 29.733-29.733 29.733h30c16.395 0 29.733-13.338 29.733-29.733v-448.301c0-16.396-13.338-29.734-29.733-29.734z" fill="#d0e7f2"></path><path d="m129.146 12.796-81.029 75.476-.191.185c-7.754 7.754-12.234 17.894-12.807 28.762h92.015c16.93-.081 30.679-13.876 30.679-30.824l.211-86.343c-10.904.522-21.085 4.999-28.878 12.744z" fill="#b7d9eb" style="fill: rgb(56, 185, 255);"></path><path d="m245.845 139.215h-110.745c-4.142 0-7.5 3.358-7.5 7.5v50.018c0 4.142 3.358 7.5 7.5 7.5h110.745c4.142 0 7.5-3.358 7.5-7.5v-50.018c0-4.142-3.358-7.5-7.5-7.5z" fill="#bd80e1" style="fill: rgb(255, 162, 0);"></path><path d="m245.845 139.215h-30c4.142 0 7.5 3.358 7.5 7.5v50.018c0 4.142-3.358 7.5-7.5 7.5h30c4.142 0 7.5-3.358 7.5-7.5v-50.018c0-4.142-3.358-7.5-7.5-7.5z" fill="#af66da" style="fill: rgb(255, 162, 0);"></path><g fill="#b7d9eb"><circle cx="141.67" cy="240.751" r="10.173" fill="#b7d9eb" style="fill: rgb(56, 185, 255);"></circle><path d="m336.535 248.251h-155.16c-4.142 0-7.5-3.358-7.5-7.5s3.358-7.5 7.5-7.5h155.16c4.142 0 7.5 3.358 7.5 7.5s-3.358 7.5-7.5 7.5z" fill="#b7d9eb" style="fill: rgb(56, 185, 255);"></path><circle cx="141.67" cy="283.751" r="10.173" fill="#b7d9eb" style="fill: rgb(56, 185, 255);"></circle><path d="m336.535 291.251h-155.16c-4.142 0-7.5-3.358-7.5-7.5s3.358-7.5 7.5-7.5h155.16c4.142 0 7.5 3.358 7.5 7.5s-3.358 7.5-7.5 7.5z" fill="#b7d9eb" style="fill: rgb(56, 185, 255);"></path><circle cx="141.67" cy="326.751" r="10.173" fill="#b7d9eb" style="fill: rgb(56, 185, 255);"></circle><path d="m336.535 334.251h-155.16c-4.142 0-7.5-3.358-7.5-7.5s3.358-7.5 7.5-7.5h155.16c4.142 0 7.5 3.358 7.5 7.5s-3.358 7.5-7.5 7.5z" fill="#b7d9eb" style="fill: rgb(56, 185, 255);"></path><circle cx="141.67" cy="369.751" r="10.173" fill="#b7d9eb" style="fill: rgb(56, 185, 255);"></circle><path d="m272.423 377.251h-91.047c-4.142 0-7.5-3.358-7.5-7.5s3.358-7.5 7.5-7.5h91.047c4.142 0 7.5 3.358 7.5 7.5s-3.358 7.5-7.5 7.5z" fill="#b7d9eb" style="fill: rgb(56, 185, 255);"></path></g><circle cx="389.669" cy="418.86" fill="#cb97e7" r="83.069" style="fill: rgb(255, 195, 92);"></circle><path d="m389.669 335.792c-5.124 0-10.132.488-15 1.376 38.713 7.064 68.069 40.939 68.069 81.692s-29.355 74.627-68.069 81.692c4.868.889 9.876 1.377 15 1.377 45.878 0 83.069-37.191 83.069-83.069s-37.192-83.068-83.069-83.068z" fill="#bd80e1" style="fill: rgb(255, 162, 0);"></path><path d="m439.895 418.647c-.116-27.635-22.542-50.004-50.201-50.018v50.018z" fill="#edf5fa"></path><path d="m439.895 426.147h-50.201c-4.142 0-7.5-3.358-7.5-7.5v-50.018c0-4.142 3.358-7.5 7.5-7.5s7.5 3.358 7.5 7.5v42.518h42.701c4.142 0 7.5 3.358 7.5 7.5s-3.358 7.5-7.5 7.5z" fill="#af66da" style="fill: rgb(255, 162, 0);"></path></g></svg>