<svg xmlns="http://www.w3.org/2000/svg" viewBox="0 0 512 512"><!--!Font Awesome Free 6.5.2 by @fontawesome - https://fontawesome.com License - https://fontawesome.com/license/free Copyright 2024 Fonticons, Inc.--><path d="M136.6 138.8a64 64 0 0 0 -43.3 41.4L0 460l14.7 14.7L164.8 324.6c-3-6.3-4.8-13.2-4.8-20.6 0-26.5 21.5-48 48-48s48 21.5 48 48-21.5 48-48 48c-7.4 0-14.3-1.8-20.6-4.8L37.3 497.3 52 512l279.9-93.3a64 64 0 0 0 41.4-43.3L416 224 288 96l-151.4 42.8zm361.3-64.6l-60.1-60.1c-18.8-18.8-49.2-18.8-67.9 0l-56.6 56.6 128 128 56.6-56.6c18.8-18.8 18.8-49.2 0-67.9z"/></svg>