<!-- icon666.com - MILLIONS vector ICONS FREE --><svg id="Layer_1" enable-background="new 0 0 512 512" viewBox="0 0 512 512" xmlns="http://www.w3.org/2000/svg" xmlns:xlink="http://www.w3.org/1999/xlink"><linearGradient id="SVGID_1_" gradientUnits="userSpaceOnUse" x1="22.747" x2="417.501" y1="138.037" y2="532.791"><stop offset="0" stop-color="#fcc20f"></stop><stop offset="1" stop-color="#e93128"></stop></linearGradient><path d="m355.5488 378.4155h100.6543v32h-100.6543zm156.4512 16c0 58.5112-47.6133 106.1138-106.1382 106.1138-58.5093 0-106.1099-47.6025-106.1099-106.1138 0-25.2205 8.8447-48.4099 23.5869-66.6408-31.8352-25.9012-71.1885-40.014-112.4082-40.014-98.6625 0-178.9306 80.2715-178.9306 178.9385v16h-32v-16c0-56.1235 22.001-109.0342 61.9507-148.9854 21.7356-21.7365 47.3129-38.1453 75.151-48.6025-41.1195-23.9638-68.818-68.5392-68.818-119.4673 0-76.189 61.9819-138.1733 138.1685-138.1733s138.1684 61.9844 138.1684 138.1733c0 49.544-26.2151 93.0736-65.4971 117.4661 24.7124 8.4863 47.7753 21.603 68.084 38.8995 16.8132-11.1988 36.9836-17.7358 58.6543-17.7358 58.5249.0001 106.1382 47.6149 106.1382 106.1417zm-305.6193-138.599c.9418-.02 1.8856-.0271 2.8293-.0347 57.2721-1.4678 103.4105-48.5159 103.4105-106.1378 0-58.5439-47.627-106.1733-106.1685-106.1733s-106.1683 47.6294-106.1683 106.1733c0 58.5201 47.5884 106.1336 106.097 106.1725zm273.6193 138.599c0-40.8818-33.2583-74.1416-74.1382-74.1416-40.8643 0-74.1099 33.2598-74.1099 74.1416 0 40.8662 33.2456 74.1138 74.1099 74.1138 40.8799 0 74.1382-33.2476 74.1382-74.1138z" fill="url(#SVGID_1_)"></path></svg>