<!-- icon666.com - MILLIONS OF FREE VECTOR ICONS --><svg id="Layer_1" enable-background="new 0 0 512 512" viewBox="0 0 512 512" xmlns="http://www.w3.org/2000/svg"><g><g id="Clock"><ellipse clip-rule="evenodd" cx="256" cy="256" fill="#f9e997" fill-rule="evenodd" rx="180.645" ry="180.646" transform="matrix(.707 -.707 .707 .707 -106.039 256)"></ellipse><path clip-rule="evenodd" d="m256 75.355c99.768 0 180.645 80.878 180.645 180.645s-80.877 180.646-180.645 180.646z" fill="#f5d844" fill-rule="evenodd"></path><ellipse clip-rule="evenodd" cx="256" cy="256" fill="#fff" fill-rule="evenodd" rx="146.41" ry="146.41" transform="matrix(.707 -.707 .707 .707 -106.039 256)"></ellipse><path d="m177.859 132.288c3.269-2.074 6.627-4.02 10.063-5.836l8.058 13.958c1.6 2.785.64 6.341-2.145 7.941s-6.341.64-7.941-2.145zm78.141-.571c3.226 0 5.842-2.616 5.842-5.842v-16.158c-1.939-.077-3.884-.127-5.842-.127-1.957 0-3.903.05-5.842.127v16.158c0 3.226 2.616 5.842 5.842 5.842zm146.283 118.441h-16.158c-3.226 0-5.842 2.616-5.842 5.842s2.616 5.842 5.842 5.842h16.158c.077-1.939.127-3.885.127-5.842s-.05-3.903-.127-5.842zm-38.634-56.323c1.6 2.785 5.156 3.746 7.941 2.145l13.958-8.058c-1.816-3.437-3.761-6.794-5.836-10.064l-13.918 8.036c-2.785 1.601-3.746 5.156-2.145 7.941zm-175.717 191.718 8.048-13.94c1.613-2.785.663-6.351-2.122-7.964s-6.351-.663-7.964 2.122l-8.045 13.935c3.275 2.079 6.64 4.028 10.083 5.847zm183.681-69.534c-2.785-1.613-6.351-.663-7.964 2.122s-.663 6.351 2.122 7.964l13.935 8.045c2.079-3.276 4.028-6.64 5.847-10.083zm-231.226-120.038c2.785 1.613 6.351.663 7.964-2.122s.663-6.351-2.122-7.964l-13.935-8.046c-2.079 3.275-4.028 6.64-5.847 10.083zm-30.67 65.861h16.158c3.226 0 5.842-2.616 5.842-5.842s-2.616-5.842-5.842-5.842h-16.158c-.077 1.939-.127 3.885-.127 5.842s.05 3.903.127 5.842zm36.489 64.264c2.785-1.601 3.745-5.156 2.145-7.941s-5.156-3.746-7.941-2.145l-13.957 8.058c1.816 3.437 3.761 6.794 5.836 10.064zm177.862-199.659-8.049 13.94c-1.613 2.785-.663 6.351 2.122 7.964s6.351.663 7.964-2.122l8.046-13.935c-3.275-2.079-6.64-4.028-10.083-5.847zm-62.226 275.836v-16.158c0-3.226-2.616-5.842-5.842-5.842s-5.842 2.616-5.842 5.842v16.158c1.939.077 3.885.127 5.842.127s3.903-.05 5.842-.127zm64.264-36.489c-1.6-2.785-5.156-3.746-7.941-2.145-2.785 1.6-3.746 5.156-2.145 7.941l8.058 13.958c3.437-1.816 6.794-3.761 10.063-5.836z" fill="#697c86"></path><path d="m365.794 185.894 13.918-8.036c2.074 3.269 4.02 6.627 5.836 10.064l-13.958 8.058c-2.785 1.6-6.341.64-7.941-2.145-1.601-2.785-.64-6.34 2.145-7.941zm5.819 130.125c-2.785-1.613-6.351-.663-7.964 2.122s-.663 6.351 2.122 7.964l13.935 8.045c2.079-3.276 4.028-6.64 5.847-10.083zm-47.545-189.572-8.049 13.94c-1.613 2.785-.663 6.351 2.122 7.964s6.351.663 7.964-2.122l8.046-13.935c-3.275-2.079-6.64-4.028-10.083-5.847zm78.215 123.711h-16.158c-3.226 0-5.842 2.616-5.842 5.842s2.616 5.842 5.842 5.842h16.158c.077-1.939.127-3.885.127-5.842s-.05-3.903-.127-5.842zm-140.441-124.283v-16.158c-1.939-.077-3.884-.127-5.842-.127v22.127c3.226 0 5.842-2.616 5.842-5.842zm64.264 239.919c-1.6-2.785-5.156-3.746-7.941-2.145-2.785 1.6-3.746 5.156-2.145 7.941l8.058 13.958c3.437-1.816 6.794-3.761 10.063-5.836zm-70.106 36.616c1.957 0 3.903-.05 5.842-.127v-16.158c0-3.226-2.616-5.842-5.842-5.842z" fill="#3b4a51"></path><g clip-rule="evenodd" fill-rule="evenodd"><path d="m261.827 256c0 3.218-2.609 5.827-5.827 5.827s-5.827-2.609-5.827-5.827v-98.377c0-3.218 2.609-5.827 5.827-5.827s5.827 2.609 5.827 5.827z" fill="#697c86"></path><path d="m261.827 256c0 3.218-2.609 5.827-5.827 5.827v-110.031c3.218 0 5.827 2.609 5.827 5.827z" fill="#3b4a51"></path><path d="m253.109 261.031c-2.778-1.597-3.736-5.143-2.14-7.922 1.597-2.778 5.143-3.736 7.922-2.14l65.204 37.645c2.778 1.597 3.736 5.143 2.14 7.922-1.596 2.778-5.143 3.736-7.922 2.14z" fill="#3b4a51"></path><path d="m256 275.35c10.657 0 19.35-8.692 19.35-19.35s-8.692-19.349-19.35-19.349-19.35 8.692-19.35 19.349 8.693 19.35 19.35 19.35z" fill="#697c86"></path><path d="m256 236.651c10.686 0 19.349 8.663 19.349 19.349s-8.663 19.35-19.349 19.35z" fill="#3b4a51"></path></g></g><g id="Arrows" clip-rule="evenodd" fill="#697c86" fill-rule="evenodd"><path d="m409.309 59.673c1.15-2.06 1.333-4.657.454-6.851l-17.09-42.441c-1.64-4.09-6.285-6.077-10.375-4.437s-6.077 6.285-4.438 10.375l7.576 18.815c-15.668-9.204-32.396-16.795-49.962-22.531-25.046-8.179-51.76-12.603-79.474-12.603-70.692 0-134.692 28.654-181.019 74.981-46.327 46.327-74.981 110.327-74.981 181.019 0 27.714 4.424 54.428 12.602 79.475 8.467 25.931 20.965 50.044 36.75 71.601 2.606 3.555 7.601 4.324 11.156 1.719 3.555-2.606 4.325-7.601 1.719-11.157-14.79-20.197-26.502-42.795-34.438-67.1-7.65-23.433-11.789-48.484-11.789-74.538 0-66.275 26.863-126.276 70.294-169.706 43.43-43.431 103.431-70.294 169.706-70.294 26.054 0 51.105 4.139 74.538 11.79 17.666 5.768 34.423 13.54 50.019 23.03l-24.594 3.485c-4.366.604-7.417 4.634-6.813 9s4.634 7.417 9 6.813c0 0 45.298-6.421 45.3-6.421 2.405-.341 4.619-1.851 5.822-3.958.013-.023.025-.044.037-.066z"></path><path d="m499.397 176.52c-8.467-25.931-20.965-50.043-36.751-71.596-2.606-3.555-7.601-4.324-11.156-1.719-3.555 2.606-4.324 7.601-1.719 11.157 14.791 20.194 26.502 42.79 34.438 67.095 7.652 23.434 11.791 48.488 11.791 74.543 0 66.275-26.863 126.276-70.294 169.706-43.43 43.431-103.431 70.294-169.706 70.294-26.055 0-51.109-4.139-74.542-11.79-17.666-5.768-34.422-13.54-50.016-23.03l24.596-3.486c4.366-.604 7.417-4.633 6.813-9-.604-4.366-4.634-7.416-9-6.813 0 0-45.299 6.421-45.3 6.421-2.492.353-4.751 1.922-5.939 4.144-1.091 2.041-1.242 4.58-.374 6.729l17.09 42.441c1.64 4.09 6.285 6.077 10.375 4.437s6.077-6.285 4.438-10.375l-7.575-18.812c15.666 9.203 32.392 16.793 49.956 22.529 25.047 8.182 51.762 12.605 79.478 12.605 70.691 0 134.692-28.654 181.019-74.981s74.981-110.327 74.981-181.019c0-27.716-4.423-54.431-12.603-79.48z"></path></g></g></svg>